#!OML:ASF \\Waltz\H\Terrain\Patient Classification 1\Animal2\Wednesday\Animal2.ASF
:FULLY-SPECIFIED
:DEGREES
2392
root 12.1561 17.5891 -5.62898 3.61692 2.72128 -4.41951
lowerback 8.19972 -2.71716 1.81032
upperback -2.6527 -3.4233 0.154257
thorax -7.49242 -1.75536 -0.352939
lowerneck 5.53363 5.71583 17.1067
upperneck 7.27246 9.29528 -16.2106
head 2.77146 4.86946 -7.68074
rclavicle -1.19644e-014 1.27222e-014
rhumerus -46.3275 3.36694 -84.5689
rradius 113.904
rwrist 10.6353
rhand -15.0606 18.5325
rfingers 7.12502
rthumb 11.1063 -11.1536
lclavicle -1.19644e-014 1.27222e-014
lhumerus -53.0992 9.02302 71.7553
lradius 110.864
lwrist 40.0329
lhand -33.9406 28.0334
lfingers 7.12502
lthumb -7.12224 57.8936
rfemur -23.7632 -2.26496 13.2351
rtibia 37.3071
rfoot -15.4379 1.42098
rtoes 18.477
lfemur -26.2398 -0.671448 -11.3984
ltibia 38.542
lfoot -15.0841 0.402555
ltoes -35.5139
2393
root 12.1301 17.5903 -5.57787 3.64421 2.86077 -4.48055
lowerback 8.03035 -2.68785 2.0335
upperback -2.69658 -3.36213 0.16833
thorax -7.45301 -1.73605 -0.478695
lowerneck 5.2363 5.76608 17.2359
upperneck 7.16239 9.31302 -16.1639
head 2.7969 4.87026 -7.67412
rclavicle 1.4387e-014 -7.95139e-015
rhumerus -45.8524 2.98933 -83.7777
rradius 114.812
rwrist 11.0713
rhand -15.0855 19.129
rfingers 7.12502
rthumb 11.0823 -10.5584
lclavicle 1.4387e-014 -7.95139e-015
lhumerus -53.5073 9.7502 71.1609
lradius 111.232
lwrist 39.8945
lhand -35.4349 29.0046
lfingers 7.12502
lthumb -8.56444 58.8109
rfemur -23.456 -1.97113 13.2697
rtibia 36.4955
rfoot -14.2708 1.07438
rtoes 20.2596
lfemur -26.071 -0.555252 -11.2369
ltibia 38.4527
lfoot -15.2312 0.165503
ltoes -35.1467
2394
root 12.1048 17.5913 -5.52702 3.8157 2.96706 -4.26807
lowerback 7.69836 -2.57693 2.08572
upperback -2.79915 -3.22619 0.0169404
thorax -7.37931 -1.6772 -0.699097
lowerneck 5.18881 5.63956 17.346
upperneck 6.84875 9.10628 -16.1269
head 2.68119 4.76912 -7.68978
rclavicle -2.36057e-016 7.95139e-016
rhumerus -45.3293 2.34602 -83.0441
rradius 115.611
rwrist 11.4294
rhand -15.2476 19.6852
rfingers 7.12502
rthumb 10.926 -10.0105
lclavicle -2.36057e-016 7.95139e-016
lhumerus -53.7426 10.2014 70.382
lradius 111.553
lwrist 39.7659
lhand -37.8153 29.767
lfingers 7.12502
lthumb -10.8611 59.4662
rfemur -23.3915 -1.76514 12.9903
rtibia 35.8519
rfoot -13.1205 0.91121
rtoes 23.2976
lfemur -26.0918 -0.342887 -11.411
ltibia 38.4748
lfoot -15.4034 -0.0739482
ltoes -35.2161
2395
root 12.0754 17.5805 -5.47839 3.98338 3.15846 -3.99881
lowerback 7.51382 -2.55951 2.07525
upperback -3.03409 -3.21698 -0.119889
thorax -7.53141 -1.67873 -0.839636
lowerneck 5.43814 5.50493 17.2721
upperneck 6.51099 8.92219 -16.0656
head 2.50319 4.68673 -7.67672
rclavicle -6.54126e-015 7.95139e-016
rhumerus -45.0669 1.89733 -82.3733
rradius 116.408
rwrist 11.7715
rhand -15.3204 20.0968
rfingers 7.12502
rthumb 10.8557 -9.60267
lclavicle -6.54126e-015 7.95139e-016
lhumerus -54.2607 10.714 69.426
lradius 111.895
lwrist 39.9662
lhand -38.9972 29.4564
lfingers 7.12502
lthumb -12.001 59.0924
rfemur -23.3088 -1.81213 12.7055
rtibia 35.3734
rfoot -12.282 0.862157
rtoes 25.1887
lfemur -26.2105 -0.156564 -11.6296
ltibia 38.613
lfoot -15.6592 -0.548742
ltoes -34.3848
2396
root 12.0404 17.5556 -5.43984 4.05929 3.45472 -4.03323
lowerback 7.51636 -2.65051 2.28127
upperback -3.23403 -3.31479 -0.100872
thorax -7.76255 -1.73885 -0.914349
lowerneck 5.36645 5.54776 17.2707
upperneck 6.53161 8.97445 -16.0848
head 2.53092 4.70987 -7.67746
rclavicle 7.26185e-015 -5.56597e-015
rhumerus -44.7383 1.68137 -81.6314
rradius 117.271
rwrist 12.2063
rhand -15.3137 20.3363
rfingers 7.12502
rthumb 10.8621 -9.36279
lclavicle 7.26185e-015 -5.56597e-015
lhumerus -54.7764 11.3432 68.4601
lradius 112.33
lwrist 40.1906
lhand -40.2661 29.3784
lfingers 7.12502
lthumb -13.2243 58.939
rfemur -23.1539 -1.81716 12.8103
rtibia 35.0691
rfoot -12.2875 0.690496
rtoes 26.0648
lfemur -26.3967 0.0529979 -11.4789
ltibia 38.8708
lfoot -16.0213 -0.955505
ltoes -34.1688
